<?xml version="1.0" encoding="UTF-8" standalone="no"?><!DOCTYPE svg PUBLIC "-//W3C//DTD SVG 1.1//EN" "http://www.w3.org/Graphics/SVG/1.1/DTD/svg11.dtd"><svg width="100%" height="100%" viewBox="0 0 1182 591" version="1.1" xmlns="http://www.w3.org/2000/svg" xmlns:xlink="http://www.w3.org/1999/xlink" xml:space="preserve" xmlns:serif="http://www.serif.com/" style="fill-rule:evenodd;clip-rule:evenodd;stroke-linejoin:round;stroke-miterlimit:2;"><g id="Слой_x0020_1"><path d="M48.513,328.041l137.205,0c10.623,-0.052 19.715,-0.097 27.246,-0.142c7.576,-0.102 13.907,-0.145 19.009,-0.293c5.146,-0.096 9.386,-0.236 12.722,-0.428c3.327,-0.184 6.044,-0.42 8.238,-0.715c2.143,-0.331 4.056,-0.67 5.72,-1.141c1.664,-0.433 3.335,-0.958 5.094,-1.574c5.624,-1.857 10.196,-4.765 13.723,-8.665c3.527,-3.909 6.148,-8.961 7.811,-15.248c1.671,-6.294 2.474,-13.958 2.474,-22.97c0.051,-10.098 -0.906,-18.287 -2.901,-24.581c-2.047,-6.235 -5.433,-11.043 -10.248,-14.385c-4.807,-3.335 -11.381,-5.713 -19.715,-7.045c6.331,-1.766 11.433,-4.336 15.195,-7.722c3.762,-3.386 6.478,-7.996 8.098,-13.812c1.671,-5.807 2.474,-13.2 2.43,-22.202c0.045,-8.614 -0.663,-15.918 -2.098,-21.918c-1.428,-6 -3.711,-10.859 -6.957,-14.614c-3.188,-3.776 -7.429,-6.677 -12.767,-8.636c-5.329,-1.943 -11.859,-3.18 -19.626,-3.71c-1.619,-0.094 -3.144,-0.191 -4.527,-0.286c-1.377,-0.09 -3.092,-0.142 -5.095,-0.193c-1.95,-0.044 -4.719,-0.087 -8.143,-0.141c-3.482,0 -8.105,-0.051 -13.87,-0.102c-5.757,-0.037 -13.148,-0.089 -22.108,-0.141l-136.91,0l-0,190.661Zm55.17,-115.487l0,-30.295l81.739,0c6.53,0.052 11.633,0.148 15.394,0.191c3.762,0 6.574,0.097 8.43,0.148c1.906,0.044 3.239,0.087 4.144,0.184c0.861,0.096 1.619,0.19 2.334,0.339c3.004,0.663 5.197,2.135 6.53,4.38c1.383,2.237 2.098,5.339 2.046,9.334c0,3.431 -0.471,6.34 -1.524,8.621c-1.045,2.335 -2.621,3.917 -4.763,4.815c-1.193,0.575 -3.047,1 -5.529,1.341c-2.473,0.331 -5.904,0.609 -10.284,0.758c-4.388,0.139 -9.954,0.184 -16.779,0.184l-81.739,0Zm0,69.754l0,-31.73l82.035,0c6.713,0.044 12.198,0.096 16.483,0.149c4.284,0.044 7.663,0.087 10.144,0.087c2.473,0.044 4.336,0.094 5.572,0.141c1.237,0.051 2.143,0.094 2.717,0.19c0.619,0.097 1.141,0.191 1.671,0.288c3.283,0.661 5.617,2.096 7.045,4.336c1.428,2.238 2.15,5.581 2.099,9.96c0.051,3.954 -0.523,7.097 -1.62,9.386c-1.052,2.283 -2.812,3.947 -5.242,4.904c-0.809,0.374 -1.574,0.707 -2.378,1.002c-0.765,0.235 -1.811,0.426 -3.195,0.566c-1.332,0.141 -3.335,0.287 -5.904,0.384c-2.577,0.044 -6.052,0.146 -10.483,0.191c-4.388,0.052 -10.056,0.094 -16.91,0.146l-82.035,0Z" style="fill:#1f1b20;fill-rule:nonzero;"/><path d="M305.879,137.38l0,190.661l60.883,0l0,-190.661l-60.883,0Z" style="fill:#1f1b20;fill-rule:nonzero;"/><path d="M809.304,136.048l0,190.644l57.174,0l-1.428,-142.622l10.284,0l71.75,142.622l48.309,0l71.743,-142.622l9.717,0l-1.428,142.622l57.165,0l0,-190.644l-104.621,0l-56.878,123.761l-56.591,-123.761l-105.195,0Z" style="fill:#1f1b20;fill-rule:nonzero;"/><path d="M587.856,25.471c112.144,0 203.05,90.914 203.05,203.057c0,90.986 -59.845,167.985 -142.322,193.805l0,-102.398c29.544,-19.671 49.009,-53.264 49.009,-91.407c0,-60.609 -49.134,-109.743 -109.737,-109.743c-60.611,0 -109.744,49.134 -109.744,109.743c0,38.143 19.473,71.735 49.009,91.407l0,102.398c-82.476,-25.82 -142.322,-102.819 -142.322,-193.805c0,-112.143 90.906,-203.057 203.057,-203.057Z" style="fill:#eb6320;"/><path d="M623.82,432.411c0.022,0.529 0.037,1.059 0.037,1.603c0,19.878 -16.122,36 -36,36c-19.884,0 -36.007,-16.122 -36.007,-36c0,-0.543 0.007,-1.074 0.03,-1.603l0,-13.791l71.941,0l0,13.791Zm-71.941,-25.4l0,-11.61l71.941,0l0,11.61l-71.941,0Zm0,-23.22l0,-11.601l71.941,0l0,11.601l-71.941,0Zm0,-23.205l0,-28.358c11.271,3.909 23.374,6.045 35.978,6.045c12.596,0 24.699,-2.135 35.963,-6.045l0,28.358l-71.941,0Z" style="fill:#1f1b20;"/></g></svg>