<svg width="436" height="405" viewBox="0 0 436 405" fill="none" xmlns="http://www.w3.org/2000/svg">
<path d="M73.219 362.802C73.219 363.724 73.0579 364.577 72.7358 365.359C72.4195 366.135 71.9714 366.81 71.3916 367.382C70.8117 367.948 70.1118 368.392 69.2918 368.713C68.4777 369.029 67.5728 369.186 66.5771 369.186H61.6045V356.426H66.5771C67.5728 356.426 68.4777 356.586 69.2918 356.907C70.1118 357.229 70.8117 357.672 71.3916 358.239C71.9714 358.805 72.4195 359.479 72.7358 360.262C73.0579 361.038 73.219 361.885 73.219 362.802ZM70.1792 362.802C70.1792 362.171 70.0972 361.602 69.9332 361.094C69.7692 360.586 69.532 360.157 69.2216 359.806C68.917 359.45 68.5421 359.179 68.097 358.992C67.6519 358.799 67.1452 358.703 66.5771 358.703H64.5916V366.909H66.5771C67.1452 366.909 67.6519 366.816 68.097 366.629C68.5421 366.436 68.917 366.165 69.2216 365.814C69.532 365.458 69.7692 365.026 69.9332 364.518C70.0972 364.01 70.1792 363.438 70.1792 362.802Z" fill="#575761"/>
<path d="M101.336 356.426V358.703H96.0822V361.681H100.106V363.87H96.0822V366.909H101.336V369.186H93.0951V356.426H101.336Z" fill="#575761"/>
<path d="M120.426 356.426H122.815C123.073 356.426 123.284 356.484 123.448 356.601C123.612 356.718 123.729 356.872 123.799 357.065L126.277 363.896C126.388 364.194 126.499 364.518 126.611 364.868C126.728 365.219 126.836 365.587 126.936 365.972C127.018 365.587 127.112 365.219 127.217 364.868C127.328 364.518 127.437 364.194 127.542 363.896L130.002 357.065C130.061 356.902 130.175 356.756 130.345 356.627C130.514 356.493 130.722 356.426 130.968 356.426H133.376L128.245 369.186H125.556L120.426 356.426Z" fill="#575761"/>
<path d="M161.126 356.426V358.703H155.872V361.681H159.896V363.87H155.872V366.909H161.126V369.186H152.885V356.426H161.126Z" fill="#575761"/>
<path d="M184.239 366.822H188.983V369.186H181.27V356.426H184.239V366.822Z" fill="#575761"/>
<path d="M220.761 362.802C220.761 363.724 220.6 364.582 220.278 365.376C219.961 366.171 219.513 366.862 218.934 367.452C218.354 368.036 217.654 368.494 216.834 368.827C216.02 369.16 215.115 369.326 214.119 369.326C213.123 369.326 212.216 369.16 211.396 368.827C210.576 368.494 209.873 368.036 209.287 367.452C208.707 366.862 208.256 366.171 207.934 365.376C207.618 364.582 207.46 363.724 207.46 362.802C207.46 361.879 207.618 361.021 207.934 360.227C208.256 359.433 208.707 358.744 209.287 358.16C209.873 357.576 210.576 357.118 211.396 356.785C212.216 356.452 213.123 356.286 214.119 356.286C215.115 356.286 216.02 356.455 216.834 356.794C217.654 357.126 218.354 357.585 218.934 358.169C219.513 358.752 219.961 359.441 220.278 360.236C220.6 361.03 220.761 361.885 220.761 362.802ZM217.721 362.802C217.721 362.171 217.639 361.605 217.475 361.103C217.311 360.595 217.074 360.165 216.764 359.815C216.459 359.465 216.084 359.196 215.639 359.009C215.194 358.823 214.687 358.729 214.119 358.729C213.545 358.729 213.033 358.823 212.582 359.009C212.136 359.196 211.759 359.465 211.448 359.815C211.144 360.165 210.909 360.595 210.745 361.103C210.581 361.605 210.499 362.171 210.499 362.802C210.499 363.438 210.581 364.01 210.745 364.518C210.909 365.02 211.144 365.447 211.448 365.797C211.759 366.147 212.136 366.416 212.582 366.603C213.033 366.784 213.545 366.874 214.119 366.874C214.687 366.874 215.194 366.784 215.639 366.603C216.084 366.416 216.459 366.147 216.764 365.797C217.074 365.447 217.311 365.02 217.475 364.518C217.639 364.01 217.721 363.438 217.721 362.802Z" fill="#575761"/>
<path d="M243.6 364.921V369.186H240.63V356.426H245.146C246.048 356.426 246.821 356.534 247.466 356.75C248.116 356.96 248.649 357.252 249.064 357.626C249.486 357.999 249.797 358.44 249.996 358.948C250.195 359.456 250.294 360.005 250.294 360.595C250.294 361.231 250.192 361.815 249.987 362.346C249.782 362.878 249.469 363.333 249.047 363.712C248.625 364.092 248.089 364.39 247.439 364.606C246.795 364.816 246.031 364.921 245.146 364.921H243.6ZM243.6 362.688H245.146C245.919 362.688 246.476 362.504 246.815 362.136C247.155 361.768 247.325 361.254 247.325 360.595C247.325 360.303 247.281 360.037 247.193 359.798C247.105 359.558 246.971 359.354 246.789 359.185C246.613 359.009 246.388 358.875 246.113 358.782C245.843 358.688 245.521 358.642 245.146 358.642H243.6V362.688Z" fill="#575761"/>
<path d="M276.83 363.353C276.947 363.575 277.059 363.806 277.164 364.045C277.275 364.285 277.381 364.53 277.48 364.781C277.58 364.524 277.685 364.276 277.797 364.036C277.908 363.791 278.022 363.555 278.139 363.327L281.425 356.881C281.484 356.77 281.542 356.686 281.601 356.627C281.665 356.563 281.735 356.516 281.812 356.487C281.888 356.458 281.973 356.44 282.066 356.435C282.166 356.429 282.28 356.426 282.409 356.426H284.676V369.186H282.058V361.847C282.058 361.491 282.075 361.105 282.11 360.691L278.719 367.251C278.614 367.455 278.47 367.61 278.289 367.715C278.113 367.82 277.911 367.872 277.682 367.872H277.278C277.05 367.872 276.845 367.82 276.663 367.715C276.488 367.61 276.347 367.455 276.242 367.251L272.833 360.682C272.856 360.887 272.874 361.091 272.886 361.295C272.897 361.494 272.903 361.678 272.903 361.847V369.186H270.285V356.426H272.552C272.681 356.426 272.792 356.429 272.886 356.435C272.985 356.44 273.073 356.458 273.149 356.487C273.225 356.516 273.293 356.563 273.351 356.627C273.416 356.686 273.477 356.77 273.536 356.881L276.83 363.353Z" fill="#575761"/>
<path d="M313.483 356.426V358.703H308.229V361.681H312.253V363.87H308.229V366.909H313.483V369.186H305.242V356.426H313.483Z" fill="#575761"/>
<path d="M335.19 356.426C335.319 356.426 335.428 356.432 335.516 356.443C335.603 356.455 335.682 356.478 335.753 356.513C335.823 356.543 335.89 356.586 335.955 356.645C336.019 356.703 336.092 356.782 336.174 356.881L342.254 364.544C342.231 364.299 342.213 364.063 342.201 363.835C342.19 363.602 342.184 363.383 342.184 363.178V356.426H344.802V369.186H343.256C343.027 369.186 342.834 369.151 342.676 369.081C342.518 369.011 342.365 368.883 342.219 368.696L336.183 361.094C336.201 361.316 336.215 361.535 336.227 361.751C336.239 361.961 336.245 362.159 336.245 362.346V369.186H333.627V356.426H335.19Z" fill="#575761"/>
<path d="M374.653 356.426V358.773H371.051V369.186H368.081V358.773H364.479V356.426H374.653Z" fill="#575761"/>
<g clip-path="url(#clip0_4273_654)">
<path d="M279.922 37.5312L316.357 156.612L271.205 188.102L242.89 87.5859L138.524 89.7757L155.5 37.3691L279.922 37.5312Z" fill="#3EA400"/>
<path d="M226.292 109.962L261.219 195.07L216.993 225.946L118.166 152.664L134.769 101.305L226.292 109.962Z" fill="#575761"/>
</g>
<g clip-path="url(#clip1_4273_654)">
<path d="M365.066 261.998C383.622 261.61 399.161 272.107 398.821 283.646L375.596 283.622C375.596 279.331 370.514 276.349 364.312 276.349H317.693C311.565 276.349 306.385 279.404 306.409 283.622V287.428L341.769 296.568V299.768H283.209V282.895C283.209 270.386 300.84 261.998 316.964 261.998H365.066Z" fill="#3EA400"/>
<path d="M316.966 333.514C298.411 333.901 282.871 323.404 283.212 311.865L306.436 311.889C306.436 316.18 311.519 319.162 317.72 319.162H364.339C370.468 319.162 375.647 316.107 375.623 311.889V308.083L347.024 299.792V296.543H398.823V312.616C398.823 325.126 381.192 333.514 365.069 333.514H316.966Z" fill="#3EA400"/>
<path d="M265.424 268.288C258.639 264.094 250.784 261.985 241.835 261.985H159.953V333.549H241.835C250.93 333.549 258.834 331.44 265.546 327.246C272.258 323.052 275.614 318.179 275.614 312.652V282.882C275.589 277.354 272.209 272.482 265.424 268.288ZM252.389 312.191C252.389 314.009 251.271 315.609 249.033 317.04C246.796 318.47 244.145 319.197 241.081 319.197H183.154V276.336H241.081C244.145 276.336 246.796 277.039 249.033 278.421C251.271 279.803 252.389 281.452 252.389 283.342V312.191ZM142.316 268.287C135.604 264.093 127.7 261.984 118.63 261.984H70.5025C61.4073 261.984 53.5036 264.093 46.7916 268.287C40.0796 272.481 36.7236 277.354 36.7236 282.882V308.385L121.767 293.597V290.106H59.9238V283.366C59.9238 281.548 61.0425 279.924 63.2798 278.518C65.5171 277.088 68.1679 276.385 71.2321 276.385H117.851C120.915 276.385 123.591 277.088 125.804 278.518C128.041 279.948 129.16 281.572 129.16 283.366V292.36L152.36 288.312V282.882C152.384 277.354 149.028 272.481 142.316 268.287ZM63.3041 317.112C61.0668 315.73 59.9481 314.106 59.9481 312.191V308.627L36.748 312.652C36.748 318.179 40.1283 323.052 46.9132 327.246C53.6982 331.44 61.5532 333.549 70.5025 333.549C70.5025 333.549 101.434 333.549 119.658 333.549C127.864 333.549 136.689 331.322 142.737 327.197C153.546 319.824 152.36 311.974 152.36 311.974H129.166C129.166 311.974 129.38 315.132 125.824 317.206C122.221 319.308 119.378 319.197 116.913 319.197C102.453 319.197 71.2564 319.197 71.2564 319.197C68.1922 319.197 65.5171 318.494 63.3041 317.112Z" fill="#3EA400"/>
</g>
<defs>
<clipPath id="clip0_4273_654">
<rect width="199.871" height="190.487" fill="white" transform="translate(117.843 36.3818)"/>
</clipPath>
<clipPath id="clip1_4273_654">
<rect width="362.403" height="72.2536" fill="white" transform="translate(36.5742 261.901)"/>
</clipPath>
</defs>
</svg>
