<?xml version="1.0" encoding="UTF-8"?>
<svg data-bbox="0 16.4 48 15.185" xmlns="http://www.w3.org/2000/svg" viewBox="0 0 48 48" height="48" width="48" data-type="color">
    <g>
        <path fill="#3550AB" d="M6.77 30.63c.338.59.966.955 1.647.955h10.27a1.898 1.898 0 0 0 0-3.796H8.416c-1.458 0-2.371 1.575-1.647 2.84Z" data-color="1"/>
        <path fill="#3550AB" d="M3.512 24.935c.338.591.966.956 1.647.956h10.269c1.458 0 2.372-1.576 1.648-2.841a1.898 1.898 0 0 0-1.648-.956H5.159c-1.458 0-2.371 1.576-1.647 2.841Z" data-color="1"/>
        <path fill="#3550AB" d="M.253 19.24c.339.592.967.956 1.648.956H12.17c1.458 0 2.371-1.575 1.647-2.84a1.898 1.898 0 0 0-1.647-.956H1.9c-1.457 0-2.37 1.575-1.647 2.84Z" data-color="1"/>
        <path fill="#3550AB" d="M19.34 16.4c-1.462 0-2.378 1.58-1.651 2.848l6.526 11.389c.338.59.96.948 1.64.948.68 0 1.317-.357 1.655-.948 2.176-3.803 4.382-7.59 6.54-11.404.717-1.269-.203-2.833-1.66-2.833a1.91 1.91 0 0 0-1.658.962l-4.87 8.51-4.871-8.514a1.902 1.902 0 0 0-1.652-.958Z" data-color="1"/>
        <path fill="#3550AB" d="M46.095 31.585a1.902 1.902 0 0 1-1.651-.958l-4.868-8.507-4.865 8.503a1.91 1.91 0 0 1-1.659.962c-1.457 0-2.376-1.564-1.659-2.833 2.156-3.811 4.36-7.595 6.536-11.396a1.898 1.898 0 0 1 3.295 0l6.521 11.38c.727 1.27-.188 2.849-1.65 2.849Z" data-color="1"/>
    </g>
</svg>
