<svg width="1141" height="1141" viewBox="0 0 1141 1141" fill="none" xmlns="http://www.w3.org/2000/svg">
<path d="M570.133 18.4988C265.814 18.4988 19.1328 265.627 19.1328 570.499C19.1328 875.37 265.814 1122.5 570.133 1122.5C874.452 1122.5 1121.13 875.37 1121.13 570.499C1121.13 265.627 874.452 18.4988 570.133 18.4988Z" fill="#141414"/>
<path d="M570.133 18.4988C265.814 18.4988 19.1328 265.627 19.1328 570.499C19.1328 875.37 265.814 1122.5 570.133 1122.5C874.452 1122.5 1121.13 875.37 1121.13 570.499C1121.13 265.627 874.452 18.4988 570.133 18.4988Z" fill="url(#paint0_radial_1151_74)" fill-opacity="0.85"/>
<path d="M779.133 932.497C978.587 817.342 1046.7 561.932 931.265 361.999C815.834 162.066 560.587 93.3448 361.132 208.5C161.678 323.655 93.5685 579.066 209 778.999C324.431 978.932 579.678 1047.65 779.133 932.497Z" fill="url(#paint1_radial_1151_74)" fill-opacity="0.5"/>
<g filter="url(#filter0_dd_1151_74)">
<path fill-rule="evenodd" clip-rule="evenodd" d="M659.151 517.955C652.644 506.052 649.26 492.375 649.52 478.699C649.781 460.464 656.808 442.736 668.781 428.806C681.015 414.877 697.673 405.253 716.153 401.96C734.634 398.668 753.634 401.454 770.293 410.065C786.951 418.676 799.705 432.605 806.993 449.574C814.281 466.542 815.322 485.284 810.116 502.759C804.911 520.234 793.458 535.43 778.101 545.814C766.909 553.412 754.155 557.97 740.88 559.49V529.098H744.524C747.908 529.098 750.511 526.566 750.511 523.273V515.929C761.183 510.864 768.471 500.226 768.471 488.07V478.952C774.978 478.193 779.923 472.874 779.923 466.289C779.923 459.198 773.937 453.373 766.649 453.373H764.566V430.832C764.566 425.514 760.142 421.208 754.676 421.208C749.21 421.208 744.785 425.514 744.785 430.832V453.373H722.4V430.832C722.4 425.514 717.975 421.208 712.509 421.208C707.043 421.208 702.619 425.514 702.619 430.832V453.373H700.276C692.988 453.373 687.001 459.198 687.001 466.289C687.001 472.874 691.947 478.193 698.454 478.952V488.07C698.454 500.226 705.482 510.61 715.893 515.929V523.527C715.893 526.819 718.496 529.352 721.88 529.352H723.962V570.38C723.962 570.887 723.962 571.393 724.222 571.9C724.743 576.459 728.647 580.258 733.592 580.258C753.374 579.751 772.896 573.673 789.294 562.529C808.555 549.613 822.87 530.365 829.378 508.584C835.885 486.55 834.583 463.25 825.473 442.229C816.363 421.208 800.226 403.733 779.403 392.843C758.84 381.953 734.894 378.407 711.729 382.712C688.563 387.018 667.74 398.921 652.644 416.143C637.547 433.618 628.958 455.652 628.437 478.446C628.177 495.921 632.342 513.143 640.931 528.339C638.068 532.138 636.506 536.95 636.506 542.015C636.506 555.438 647.698 566.075 661.233 566.075C675.028 566.075 685.96 555.185 685.96 542.015C685.96 528.845 674.768 517.955 661.233 517.955C661.233 517.955 660.192 517.955 659.151 517.955ZM285.381 702.837V683.589L296.313 673.205L320.78 702.837H348.11L312.711 659.023L345.247 626.858H318.437L285.381 657.25V597.986H262.736V702.584H285.381V702.837ZM462.115 625.845C468.362 625.845 473.828 627.111 478.513 629.391C483.458 631.67 487.102 635.469 489.705 640.281C492.568 645.093 493.87 651.425 493.87 659.276V702.837H471.225V662.821C471.225 656.743 469.923 652.184 467.321 649.399C464.718 646.359 461.074 645.093 456.389 645.093C453.005 645.093 450.142 645.853 447.539 647.372C444.936 648.892 442.854 650.918 441.552 653.957C439.991 656.996 439.47 660.542 439.47 665.101V703.09H416.825V663.075C416.825 656.996 415.524 652.438 412.921 649.652C410.318 646.613 406.674 645.346 401.989 645.346C398.605 645.346 395.742 646.106 393.139 647.626C390.536 649.145 388.454 651.171 387.153 654.211C385.591 657.25 385.07 660.795 385.07 665.354V703.344H362.426V627.365H384.029V636.229C386.112 633.949 388.714 631.923 391.317 630.404C396.263 627.618 401.989 626.352 408.496 626.352C415.524 626.352 421.771 628.124 427.237 631.67C430.1 633.443 432.442 635.722 434.264 638.761C436.607 635.976 439.21 633.696 442.594 631.67C448.059 627.618 454.827 625.845 462.115 625.845ZM527.186 704.103C523.282 704.103 519.898 702.837 517.295 700.304C514.693 697.772 513.131 694.226 513.131 690.174C513.131 686.122 514.432 682.829 517.295 680.55C520.159 678.017 523.542 676.751 527.186 676.751C531.091 676.751 534.474 678.017 537.077 680.55C539.68 683.083 541.242 686.122 541.242 690.174C541.242 694.226 539.94 697.519 537.077 700.304C534.474 702.837 531.091 704.103 527.186 704.103ZM597.724 704.103C589.394 704.103 581.846 702.584 575.339 699.291C568.832 695.999 563.626 691.187 559.722 685.362C556.078 679.537 554.256 672.699 554.256 665.101C554.256 657.503 556.078 650.665 559.722 644.84C563.366 639.015 568.572 634.203 575.339 630.91C581.846 627.618 589.394 625.845 597.724 625.845C606.053 625.845 613.08 627.618 619.067 630.91C625.053 634.203 629.739 639.015 632.602 645.093L615.163 654.211C613.08 650.665 610.478 647.879 607.354 646.359C604.231 644.587 601.107 643.827 597.463 643.827C593.559 643.827 590.175 644.587 587.052 646.359C583.928 648.132 581.586 650.412 579.764 653.451C577.942 656.49 577.161 660.289 577.161 664.848C577.161 669.153 577.942 672.952 579.764 676.244C581.586 679.284 584.189 681.816 587.052 683.336C590.175 685.109 593.559 685.868 597.463 685.868C601.107 685.868 604.231 685.109 607.354 683.589C610.478 681.816 613.08 679.284 615.163 675.485L632.602 684.855C629.739 690.934 625.314 695.746 619.067 699.038C613.08 702.331 606.053 704.103 597.724 704.103ZM686.221 704.103C677.891 704.103 670.603 702.331 664.096 699.038C657.589 695.746 652.644 690.934 649 685.109C645.356 679.284 643.534 672.446 643.534 664.848C643.534 657.25 645.356 650.412 649 644.587C652.644 638.761 657.849 633.949 664.096 630.657C670.603 627.365 677.891 625.592 686.221 625.592C694.55 625.592 701.838 627.365 708.345 630.657C714.852 633.949 719.797 638.508 723.441 644.333C727.085 650.158 728.907 656.996 728.907 664.594C728.907 672.192 727.085 678.777 723.441 684.855C719.797 690.68 714.592 695.239 708.345 698.785C701.838 702.331 694.289 704.103 686.221 704.103ZM686.221 686.122C689.865 686.122 693.248 685.362 696.372 683.589C699.495 681.816 701.838 679.537 703.399 676.498C705.221 673.205 706.002 669.66 706.002 665.101C706.002 660.795 705.221 656.996 703.399 653.704C701.577 650.412 699.235 648.132 696.372 646.613C693.509 645.093 690.125 644.08 686.221 644.08C682.577 644.08 679.193 644.84 676.069 646.613C673.206 648.385 670.603 650.665 668.781 653.704C666.959 656.743 666.179 660.542 666.179 665.101C666.179 669.406 666.959 673.205 668.781 676.498C670.603 679.537 672.946 682.069 676.069 683.589C678.933 685.109 682.316 686.122 686.221 686.122ZM848.378 625.845C854.625 625.845 860.091 627.111 864.776 629.391C869.722 631.67 873.366 635.469 875.969 640.281C878.832 645.093 880.133 651.425 880.133 659.276V702.837H857.488V662.821C857.488 656.743 856.187 652.184 853.584 649.399C850.981 646.359 847.337 645.093 842.652 645.093C839.268 645.093 836.405 645.853 833.802 647.372C831.199 648.892 829.117 650.918 827.816 653.957C826.514 656.996 825.733 660.542 825.733 665.101V703.09H803.089V663.075C803.089 656.996 801.787 652.438 799.184 649.652C796.582 646.613 792.938 645.346 788.252 645.346C784.869 645.346 782.006 646.106 779.403 647.626C776.8 649.145 774.718 651.171 773.416 654.211C771.854 657.25 771.334 660.795 771.334 665.354V703.344H748.689V627.365H770.293V636.229C772.375 633.949 774.978 631.923 777.581 630.404C782.526 627.618 788.252 626.352 794.76 626.352C801.787 626.352 808.034 628.124 813.5 631.67C816.363 633.443 818.706 635.722 820.528 638.761C822.87 635.976 825.473 633.696 828.857 631.67C834.323 627.618 840.83 625.845 848.378 625.845ZM335.096 552.145V577.472H466.54V545.561H391.578L431.661 508.837C439.73 501.493 445.977 494.655 450.142 488.83C454.567 482.751 457.169 477.179 458.471 471.861C460.033 466.289 460.813 460.971 460.813 455.399C460.813 445.015 458.211 436.151 452.745 428.806C447.539 421.462 439.991 415.637 430.1 411.584C420.469 407.279 409.277 405.253 396.263 405.253C380.646 405.253 366.85 408.039 355.138 413.61C343.164 419.182 334.055 426.78 327.287 436.657L356.699 455.146C361.124 449.321 366.33 445.015 372.316 442.229C378.563 439.443 385.331 438.177 392.619 438.177C401.729 438.177 408.496 439.95 413.181 443.749C417.866 447.294 420.469 452.36 420.469 459.198C420.469 461.73 419.949 464.516 418.908 467.555C418.127 470.595 416.305 473.887 413.962 477.686C411.359 481.485 407.455 485.537 402.249 490.349L335.096 552.145ZM488.924 552.145V577.472H620.368V545.561H545.406L585.49 508.837C593.559 501.493 599.806 494.655 603.97 488.83C608.395 482.751 610.998 477.179 612.3 471.861C613.861 466.289 614.642 460.971 614.642 455.399C614.642 445.015 611.779 436.151 606.313 428.806C601.107 421.462 593.559 415.637 583.668 411.584C574.038 407.279 562.845 405.253 549.831 405.253C534.214 405.253 520.419 408.039 508.706 413.61C496.733 419.182 487.623 426.78 480.855 436.657L510.268 455.146C514.693 449.321 519.898 445.015 525.885 442.229C532.132 439.443 538.899 438.177 546.187 438.177C555.297 438.177 562.064 439.95 566.75 443.749C571.435 447.294 574.038 452.36 574.038 459.198C574.038 461.73 573.517 464.516 572.476 467.555C571.695 470.595 569.873 473.887 567.53 477.686C564.928 481.485 561.023 485.537 555.818 490.349L488.924 552.145Z" fill="url(#paint2_linear_1151_74)" fill-opacity="0.99"/>
<path fill-rule="evenodd" clip-rule="evenodd" d="M659.151 517.955C652.644 506.052 649.26 492.375 649.52 478.699C649.781 460.464 656.808 442.736 668.781 428.806C681.015 414.877 697.673 405.253 716.153 401.96C734.634 398.668 753.634 401.454 770.293 410.065C786.951 418.676 799.705 432.605 806.993 449.574C814.281 466.542 815.322 485.284 810.116 502.759C804.911 520.234 793.458 535.43 778.101 545.814C766.909 553.412 754.155 557.97 740.88 559.49V529.098H744.524C747.908 529.098 750.511 526.566 750.511 523.273V515.929C761.183 510.864 768.471 500.226 768.471 488.07V478.952C774.978 478.193 779.923 472.874 779.923 466.289C779.923 459.198 773.937 453.373 766.649 453.373H764.566V430.832C764.566 425.514 760.142 421.208 754.676 421.208C749.21 421.208 744.785 425.514 744.785 430.832V453.373H722.4V430.832C722.4 425.514 717.975 421.208 712.509 421.208C707.043 421.208 702.619 425.514 702.619 430.832V453.373H700.276C692.988 453.373 687.001 459.198 687.001 466.289C687.001 472.874 691.947 478.193 698.454 478.952V488.07C698.454 500.226 705.482 510.61 715.893 515.929V523.527C715.893 526.819 718.496 529.352 721.88 529.352H723.962V570.38C723.962 570.887 723.962 571.393 724.222 571.9C724.743 576.459 728.647 580.258 733.592 580.258C753.374 579.751 772.896 573.673 789.294 562.529C808.555 549.613 822.87 530.365 829.378 508.584C835.885 486.55 834.583 463.25 825.473 442.229C816.363 421.208 800.226 403.733 779.403 392.843C758.84 381.953 734.894 378.407 711.729 382.712C688.563 387.018 667.74 398.921 652.644 416.143C637.547 433.618 628.958 455.652 628.437 478.446C628.177 495.921 632.342 513.143 640.931 528.339C638.068 532.138 636.506 536.95 636.506 542.015C636.506 555.438 647.698 566.075 661.233 566.075C675.028 566.075 685.96 555.185 685.96 542.015C685.96 528.845 674.768 517.955 661.233 517.955C661.233 517.955 660.192 517.955 659.151 517.955ZM285.381 702.837V683.589L296.313 673.205L320.78 702.837H348.11L312.711 659.023L345.247 626.858H318.437L285.381 657.25V597.986H262.736V702.584H285.381V702.837ZM462.115 625.845C468.362 625.845 473.828 627.111 478.513 629.391C483.458 631.67 487.102 635.469 489.705 640.281C492.568 645.093 493.87 651.425 493.87 659.276V702.837H471.225V662.821C471.225 656.743 469.923 652.184 467.321 649.399C464.718 646.359 461.074 645.093 456.389 645.093C453.005 645.093 450.142 645.853 447.539 647.372C444.936 648.892 442.854 650.918 441.552 653.957C439.991 656.996 439.47 660.542 439.47 665.101V703.09H416.825V663.075C416.825 656.996 415.524 652.438 412.921 649.652C410.318 646.613 406.674 645.346 401.989 645.346C398.605 645.346 395.742 646.106 393.139 647.626C390.536 649.145 388.454 651.171 387.153 654.211C385.591 657.25 385.07 660.795 385.07 665.354V703.344H362.426V627.365H384.029V636.229C386.112 633.949 388.714 631.923 391.317 630.404C396.263 627.618 401.989 626.352 408.496 626.352C415.524 626.352 421.771 628.124 427.237 631.67C430.1 633.443 432.442 635.722 434.264 638.761C436.607 635.976 439.21 633.696 442.594 631.67C448.059 627.618 454.827 625.845 462.115 625.845ZM527.186 704.103C523.282 704.103 519.898 702.837 517.295 700.304C514.693 697.772 513.131 694.226 513.131 690.174C513.131 686.122 514.432 682.829 517.295 680.55C520.159 678.017 523.542 676.751 527.186 676.751C531.091 676.751 534.474 678.017 537.077 680.55C539.68 683.083 541.242 686.122 541.242 690.174C541.242 694.226 539.94 697.519 537.077 700.304C534.474 702.837 531.091 704.103 527.186 704.103ZM597.724 704.103C589.394 704.103 581.846 702.584 575.339 699.291C568.832 695.999 563.626 691.187 559.722 685.362C556.078 679.537 554.256 672.699 554.256 665.101C554.256 657.503 556.078 650.665 559.722 644.84C563.366 639.015 568.572 634.203 575.339 630.91C581.846 627.618 589.394 625.845 597.724 625.845C606.053 625.845 613.08 627.618 619.067 630.91C625.053 634.203 629.739 639.015 632.602 645.093L615.163 654.211C613.08 650.665 610.478 647.879 607.354 646.359C604.231 644.587 601.107 643.827 597.463 643.827C593.559 643.827 590.175 644.587 587.052 646.359C583.928 648.132 581.586 650.412 579.764 653.451C577.942 656.49 577.161 660.289 577.161 664.848C577.161 669.153 577.942 672.952 579.764 676.244C581.586 679.284 584.189 681.816 587.052 683.336C590.175 685.109 593.559 685.868 597.463 685.868C601.107 685.868 604.231 685.109 607.354 683.589C610.478 681.816 613.08 679.284 615.163 675.485L632.602 684.855C629.739 690.934 625.314 695.746 619.067 699.038C613.08 702.331 606.053 704.103 597.724 704.103ZM686.221 704.103C677.891 704.103 670.603 702.331 664.096 699.038C657.589 695.746 652.644 690.934 649 685.109C645.356 679.284 643.534 672.446 643.534 664.848C643.534 657.25 645.356 650.412 649 644.587C652.644 638.761 657.849 633.949 664.096 630.657C670.603 627.365 677.891 625.592 686.221 625.592C694.55 625.592 701.838 627.365 708.345 630.657C714.852 633.949 719.797 638.508 723.441 644.333C727.085 650.158 728.907 656.996 728.907 664.594C728.907 672.192 727.085 678.777 723.441 684.855C719.797 690.68 714.592 695.239 708.345 698.785C701.838 702.331 694.289 704.103 686.221 704.103ZM686.221 686.122C689.865 686.122 693.248 685.362 696.372 683.589C699.495 681.816 701.838 679.537 703.399 676.498C705.221 673.205 706.002 669.66 706.002 665.101C706.002 660.795 705.221 656.996 703.399 653.704C701.577 650.412 699.235 648.132 696.372 646.613C693.509 645.093 690.125 644.08 686.221 644.08C682.577 644.08 679.193 644.84 676.069 646.613C673.206 648.385 670.603 650.665 668.781 653.704C666.959 656.743 666.179 660.542 666.179 665.101C666.179 669.406 666.959 673.205 668.781 676.498C670.603 679.537 672.946 682.069 676.069 683.589C678.933 685.109 682.316 686.122 686.221 686.122ZM848.378 625.845C854.625 625.845 860.091 627.111 864.776 629.391C869.722 631.67 873.366 635.469 875.969 640.281C878.832 645.093 880.133 651.425 880.133 659.276V702.837H857.488V662.821C857.488 656.743 856.187 652.184 853.584 649.399C850.981 646.359 847.337 645.093 842.652 645.093C839.268 645.093 836.405 645.853 833.802 647.372C831.199 648.892 829.117 650.918 827.816 653.957C826.514 656.996 825.733 660.542 825.733 665.101V703.09H803.089V663.075C803.089 656.996 801.787 652.438 799.184 649.652C796.582 646.613 792.938 645.346 788.252 645.346C784.869 645.346 782.006 646.106 779.403 647.626C776.8 649.145 774.718 651.171 773.416 654.211C771.854 657.25 771.334 660.795 771.334 665.354V703.344H748.689V627.365H770.293V636.229C772.375 633.949 774.978 631.923 777.581 630.404C782.526 627.618 788.252 626.352 794.76 626.352C801.787 626.352 808.034 628.124 813.5 631.67C816.363 633.443 818.706 635.722 820.528 638.761C822.87 635.976 825.473 633.696 828.857 631.67C834.323 627.618 840.83 625.845 848.378 625.845ZM335.096 552.145V577.472H466.54V545.561H391.578L431.661 508.837C439.73 501.493 445.977 494.655 450.142 488.83C454.567 482.751 457.169 477.179 458.471 471.861C460.033 466.289 460.813 460.971 460.813 455.399C460.813 445.015 458.211 436.151 452.745 428.806C447.539 421.462 439.991 415.637 430.1 411.584C420.469 407.279 409.277 405.253 396.263 405.253C380.646 405.253 366.85 408.039 355.138 413.61C343.164 419.182 334.055 426.78 327.287 436.657L356.699 455.146C361.124 449.321 366.33 445.015 372.316 442.229C378.563 439.443 385.331 438.177 392.619 438.177C401.729 438.177 408.496 439.95 413.181 443.749C417.866 447.294 420.469 452.36 420.469 459.198C420.469 461.73 419.949 464.516 418.908 467.555C418.127 470.595 416.305 473.887 413.962 477.686C411.359 481.485 407.455 485.537 402.249 490.349L335.096 552.145ZM488.924 552.145V577.472H620.368V545.561H545.406L585.49 508.837C593.559 501.493 599.806 494.655 603.97 488.83C608.395 482.751 610.998 477.179 612.3 471.861C613.861 466.289 614.642 460.971 614.642 455.399C614.642 445.015 611.779 436.151 606.313 428.806C601.107 421.462 593.559 415.637 583.668 411.584C574.038 407.279 562.845 405.253 549.831 405.253C534.214 405.253 520.419 408.039 508.706 413.61C496.733 419.182 487.623 426.78 480.855 436.657L510.268 455.146C514.693 449.321 519.898 445.015 525.885 442.229C532.132 439.443 538.899 438.177 546.187 438.177C555.297 438.177 562.064 439.95 566.75 443.749C571.435 447.294 574.038 452.36 574.038 459.198C574.038 461.73 573.517 464.516 572.476 467.555C571.695 470.595 569.873 473.887 567.53 477.686C564.928 481.485 561.023 485.537 555.818 490.349L488.924 552.145Z" fill="#FC019B"/>
</g>
<defs>
<filter id="filter0_dd_1151_74" x="258.736" y="380.931" width="625.396" height="331.173" filterUnits="userSpaceOnUse" color-interpolation-filters="sRGB">
<feFlood flood-opacity="0" result="BackgroundImageFix"/>
<feColorMatrix in="SourceAlpha" type="matrix" values="0 0 0 0 0 0 0 0 0 0 0 0 0 0 0 0 0 0 127 0" result="hardAlpha"/>
<feOffset dy="4"/>
<feGaussianBlur stdDeviation="2"/>
<feComposite in2="hardAlpha" operator="out"/>
<feColorMatrix type="matrix" values="0 0 0 0 0 0 0 0 0 0 0 0 0 0 0 0 0 0 0.25 0"/>
<feBlend mode="normal" in2="BackgroundImageFix" result="effect1_dropShadow_1151_74"/>
<feColorMatrix in="SourceAlpha" type="matrix" values="0 0 0 0 0 0 0 0 0 0 0 0 0 0 0 0 0 0 127 0" result="hardAlpha"/>
<feOffset dy="4"/>
<feGaussianBlur stdDeviation="2"/>
<feComposite in2="hardAlpha" operator="out"/>
<feColorMatrix type="matrix" values="0 0 0 0 0 0 0 0 0 0 0 0 0 0 0 0 0 0 0.25 0"/>
<feBlend mode="normal" in2="effect1_dropShadow_1151_74" result="effect2_dropShadow_1151_74"/>
<feBlend mode="normal" in="SourceGraphic" in2="effect2_dropShadow_1151_74" result="shape"/>
</filter>
<radialGradient id="paint0_radial_1151_74" cx="0" cy="0" r="1" gradientTransform="matrix(351.5 436.5 433.754 -353.106 570.133 570.499)" gradientUnits="userSpaceOnUse">
<stop offset="0.692308" stop-color="#333333" stop-opacity="0.75"/>
<stop offset="0.817308"/>
<stop offset="0.9375" stop-color="#DB0CAE"/>
</radialGradient>
<radialGradient id="paint1_radial_1151_74" cx="0" cy="0" r="1" gradientTransform="matrix(536 842.5 840.49 -535.348 336.633 237.999)" gradientUnits="userSpaceOnUse">
<stop offset="0.0534702" stop-color="#FF00EE"/>
<stop offset="0.387672" stop-color="#780070" stop-opacity="0.855769"/>
<stop offset="1" stop-opacity="0"/>
</radialGradient>
<linearGradient id="paint2_linear_1151_74" x1="571.436" y1="380.832" x2="571.436" y2="704.081" gradientUnits="userSpaceOnUse">
<stop stop-color="#C83DC5"/>
<stop offset="1" stop-color="#932D90"/>
</linearGradient>
</defs>
</svg>
