<svg width="30" height="30" viewBox="0 0 30 30" fill="none" xmlns="http://www.w3.org/2000/svg" role="img" aria-label="Vyriy EMS">
<title>Vyriy EMS</title>
<path fill-rule="evenodd" clip-rule="evenodd" d="M3.00245 14.7522C2.95984 16.819 3.45184 18.8496 4.41521 20.6532C4.55884 20.6359 4.70504 20.6271 4.85331 20.6271C6.8636 20.6271 8.49326 22.2567 8.49326 24.267C8.49326 26.2773 6.8636 27.907 4.85331 27.907C2.84302 27.907 1.21336 26.2773 1.21336 24.267C1.21336 23.5048 1.44766 22.7973 1.84816 22.2126C0.591861 19.922 -0.0512342 17.3297 0.00318986 14.6903C0.0740852 11.2521 1.32429 7.94262 3.54438 5.31628C5.76448 2.68995 8.81963 0.906244 12.1981 0.263955C15.5765 -0.378334 19.0731 0.159799 22.1021 1.78822C25.1311 3.41663 27.5085 6.03643 28.8361 9.20878C30.1638 12.3811 30.361 15.9134 29.3948 19.2138C28.4286 22.5142 26.3576 25.3824 23.5288 27.338C21.1129 29.008 18.2695 29.9258 15.3549 29.9949C14.6253 30.0121 14.0576 29.4486 13.9761 28.7494C13.9611 28.6731 13.9532 28.5943 13.9532 28.5137L13.9532 22.3218H13.6397C13.1553 22.3218 12.7626 21.9291 12.7626 21.4447V20.3032C11.2361 19.5328 10.1893 17.9507 10.1893 16.1242V14.7652C9.23383 14.6498 8.4934 13.8361 8.4934 12.8494C8.4934 11.7836 9.35738 10.9197 10.4232 10.9197H10.7742V7.52928C10.7742 6.72187 11.4287 6.06734 12.2362 6.06734C13.0436 6.06734 13.6981 6.72187 13.6981 7.52928V10.9197H16.973V7.52936C16.973 6.72196 17.6276 6.06742 18.435 6.06742C19.2424 6.06742 19.8969 6.72196 19.8969 7.52936V10.9197H20.1889C21.2547 10.9197 22.1187 11.7836 22.1187 12.8494C22.1187 13.836 21.3783 14.6497 20.4229 14.7651V16.1242C20.4229 17.9738 19.3495 19.5727 17.7916 20.332V21.4447C17.7916 21.9291 17.3989 22.3218 16.9145 22.3218H16.3798V26.9195C18.3233 26.6944 20.1945 25.996 21.8229 24.8703C24.086 23.3059 25.7428 21.0113 26.5158 18.3709C27.2887 15.7306 27.1309 12.9048 26.0688 10.3669C25.0067 7.82905 23.1047 5.73321 20.6816 4.43048C18.2584 3.12775 15.4611 2.69724 12.7584 3.21107C10.0556 3.7249 7.61149 5.15186 5.83541 7.25293C4.05933 9.354 3.05917 12.0016 3.00245 14.7522Z" fill="url(#paint0_linear_958_22)" fill-opacity="0.99"/>
<path fill-rule="evenodd" clip-rule="evenodd" d="M3.00245 14.7522C2.95984 16.819 3.45184 18.8496 4.41521 20.6532C4.55884 20.6359 4.70504 20.6271 4.85331 20.6271C6.8636 20.6271 8.49326 22.2567 8.49326 24.267C8.49326 26.2773 6.8636 27.907 4.85331 27.907C2.84302 27.907 1.21336 26.2773 1.21336 24.267C1.21336 23.5048 1.44766 22.7973 1.84816 22.2126C0.591861 19.922 -0.0512342 17.3297 0.00318986 14.6903C0.0740852 11.2521 1.32429 7.94262 3.54438 5.31628C5.76448 2.68995 8.81963 0.906244 12.1981 0.263955C15.5765 -0.378334 19.0731 0.159799 22.1021 1.78822C25.1311 3.41663 27.5085 6.03643 28.8361 9.20878C30.1638 12.3811 30.361 15.9134 29.3948 19.2138C28.4286 22.5142 26.3576 25.3824 23.5288 27.338C21.1129 29.008 18.2695 29.9258 15.3549 29.9949C14.6253 30.0121 14.0576 29.4486 13.9761 28.7494C13.9611 28.6731 13.9532 28.5943 13.9532 28.5137L13.9532 22.3218H13.6397C13.1553 22.3218 12.7626 21.9291 12.7626 21.4447V20.3032C11.2361 19.5328 10.1893 17.9507 10.1893 16.1242V14.7652C9.23383 14.6498 8.4934 13.8361 8.4934 12.8494C8.4934 11.7836 9.35738 10.9197 10.4232 10.9197H10.7742V7.52928C10.7742 6.72187 11.4287 6.06734 12.2362 6.06734C13.0436 6.06734 13.6981 6.72187 13.6981 7.52928V10.9197H16.973V7.52936C16.973 6.72196 17.6276 6.06742 18.435 6.06742C19.2424 6.06742 19.8969 6.72196 19.8969 7.52936V10.9197H20.1889C21.2547 10.9197 22.1187 11.7836 22.1187 12.8494C22.1187 13.836 21.3783 14.6497 20.4229 14.7651V16.1242C20.4229 17.9738 19.3495 19.5727 17.7916 20.332V21.4447C17.7916 21.9291 17.3989 22.3218 16.9145 22.3218H16.3798V26.9195C18.3233 26.6944 20.1945 25.996 21.8229 24.8703C24.086 23.3059 25.7428 21.0113 26.5158 18.3709C27.2887 15.7306 27.1309 12.9048 26.0688 10.3669C25.0067 7.82905 23.1047 5.73321 20.6816 4.43048C18.2584 3.12775 15.4611 2.69724 12.7584 3.21107C10.0556 3.7249 7.61149 5.15186 5.83541 7.25293C4.05933 9.354 3.05917 12.0016 3.00245 14.7522Z" fill="#FC019B"/>
<path fill-rule="evenodd" clip-rule="evenodd" d="M3.00245 14.7522C2.95984 16.819 3.45184 18.8496 4.41521 20.6532C4.55884 20.6359 4.70504 20.6271 4.85331 20.6271C6.8636 20.6271 8.49326 22.2567 8.49326 24.267C8.49326 26.2773 6.8636 27.907 4.85331 27.907C2.84302 27.907 1.21336 26.2773 1.21336 24.267C1.21336 23.5048 1.44766 22.7973 1.84816 22.2126C0.591861 19.922 -0.0512342 17.3297 0.00318986 14.6903C0.0740852 11.2521 1.32429 7.94262 3.54438 5.31628C5.76448 2.68995 8.81963 0.906244 12.1981 0.263955C15.5765 -0.378334 19.0731 0.159799 22.1021 1.78822C25.1311 3.41663 27.5085 6.03643 28.8361 9.20878C30.1638 12.3811 30.361 15.9134 29.3948 19.2138C28.4286 22.5142 26.3576 25.3824 23.5288 27.338C21.1129 29.008 18.2695 29.9258 15.3549 29.9949C14.6253 30.0121 14.0576 29.4486 13.9761 28.7494C13.9611 28.6731 13.9532 28.5943 13.9532 28.5137L13.9532 22.3218H13.6397C13.1553 22.3218 12.7626 21.9291 12.7626 21.4447V20.3032C11.2361 19.5328 10.1893 17.9507 10.1893 16.1242V14.7652C9.23383 14.6498 8.4934 13.8361 8.4934 12.8494C8.4934 11.7836 9.35738 10.9197 10.4232 10.9197H10.7742V7.52928C10.7742 6.72187 11.4287 6.06734 12.2362 6.06734C13.0436 6.06734 13.6981 6.72187 13.6981 7.52928V10.9197H16.973V7.52936C16.973 6.72196 17.6276 6.06742 18.435 6.06742C19.2424 6.06742 19.8969 6.72196 19.8969 7.52936V10.9197H20.1889C21.2547 10.9197 22.1187 11.7836 22.1187 12.8494C22.1187 13.836 21.3783 14.6497 20.4229 14.7651V16.1242C20.4229 17.9738 19.3495 19.5727 17.7916 20.332V21.4447C17.7916 21.9291 17.3989 22.3218 16.9145 22.3218H16.3798V26.9195C18.3233 26.6944 20.1945 25.996 21.8229 24.8703C24.086 23.3059 25.7428 21.0113 26.5158 18.3709C27.2887 15.7306 27.1309 12.9048 26.0688 10.3669C25.0067 7.82905 23.1047 5.73321 20.6816 4.43048C18.2584 3.12775 15.4611 2.69724 12.7584 3.21107C10.0556 3.7249 7.61149 5.15186 5.83541 7.25293C4.05933 9.354 3.05917 12.0016 3.00245 14.7522Z" fill="url(#paint1_linear_958_22)" fill-opacity="0.21"/>
<defs>
<linearGradient id="paint0_linear_958_22" x1="18.5994" y1="-16.799" x2="18.5994" y2="13.1963" gradientUnits="userSpaceOnUse">
<stop stop-color="#C83DC5"/>
<stop offset="1" stop-color="#932D90"/>
</linearGradient>
<linearGradient id="paint1_linear_958_22" x1="18.5994" y1="-16.799" x2="18.5994" y2="13.1963" gradientUnits="userSpaceOnUse">
<stop stop-color="#FA4242" stop-opacity="0"/>
<stop offset="0.045" stop-color="#FB3434" stop-opacity="0.214008"/>
<stop offset="0.165" stop-color="#FC2D2D" stop-opacity="0.321012"/>
<stop offset="0.514" stop-color="#FF0000"/>
</linearGradient>
</defs>
</svg>
